/* XPM */
static char * gpasman_icon_xpm[] = {
"32 32 17 1",
" 	c None",
".	c #0D0B0B",
"+	c #908F8F",
"@	c #4D4851",
"#	c #6C6E6E",
"$	c #2B2E2E",
"%	c #5F575E",
"&	c #D2D2D2",
"*	c #B0AFAE",
"=	c #515558",
"-	c #EBEBEB",
";	c #837765",
">	c #AE8751",
",	c #DAB074",
"'	c #403937",
")	c #1A191C",
"!	c #BD9865",
"                                ",
"        @.   $)                 ",
"        *&+$.;,;$.              ",
"        *---!@;!,>'.            ",
" $'     *-----*%%!,!@.    .     ",
"  ;+@  .&-------,%%!,,%).#>$    ",
"  =--+=)*---------&#@>,,>,,,;.  ",
"  @&---*#+----------&;@>,,,,,!' ",
"   +---&&*%;&----&-&-&&+@;!,,,' ",
"   =---&*#'))$+,--&-&-&&&!@,,!. ",
"   '&&*++$.....$*&-&-&-&&&',,;  ",
"    +&##$'$''$..)=!&&&&&&&',,'  ",
"    @#))'=***%'..%#%+&&-&*@,*)  ",
"    @@)'=*&&*&%'.$**;@;&&*@,>.  ",
"     $$$;&*&**+@.)+**+;@*+%*%   ",
"     @')+*&*&*+%).#**+*=*+;*$   ",
"     =@$#*****;%$);+*++%+#;!.   ",
"    @''$'$$$$$''''@#*+*%+=+#    ",
"    .)..).......))))+++#+@+@    ",
"    ..).....).)....)+++##@+.    ",
"    ))))$)$)))))$))$+++##';.    ",
"    ###%=========%=#+++#=@=     ",
"    =======@@=@%%%%%;+;#@'$     ",
"    =#===@=@=@@@@%%=+;+#''.     ",
"    #======@@=@@@%%%;;;#'$      ",
"    ==@@@@@@'@@@@@==#+;#$)      ",
"    ======@@@@@@%%@=;#;#$.      ",
"    $)$)))))))))))))@=##$.      ",
"    ....))..........  '=$       ",
"    .)..............    $       ",
"                                ",
"                                "};
